<svg aria-hidden="true" style="position: absolute; width: 0; height: 0; overflow: hidden;" version="1.1" xmlns="http://www.w3.org/2000/svg" xmlns:xlink="http://www.w3.org/1999/xlink">
<defs>
<symbol id="icon-arrow-right" viewBox="0 0 18 32">
<path fill="currentColor" style="fill: var(--color1, currentColor)" d="M3.753 30.603l14.088-13.923c0.275-0.27 0.445-0.645 0.445-1.061s-0.17-0.791-0.445-1.060l-0-0-14.088-13.923c-0.4-0.393-0.949-0.635-1.554-0.635s-1.154 0.243-1.555 0.636l0-0c-0.397 0.391-0.643 0.935-0.643 1.536s0.246 1.145 0.643 1.536l0 0 12.050 11.913-12.052 11.909c-0.397 0.392-0.642 0.936-0.642 1.537s0.246 1.145 0.642 1.537l0 0c0.4 0.393 0.949 0.635 1.554 0.635s1.154-0.243 1.555-0.636l-0 0z"></path>
</symbol>
<symbol id="icon-arrow-left" viewBox="0 0 20 32">
<path fill="currentColor" style="fill: var(--color1, currentColor)" d="M15.294 31.365l-14.088-13.923c-0.275-0.27-0.445-0.645-0.445-1.061s0.17-0.791 0.445-1.060l0-0 14.088-13.923c0.4-0.393 0.949-0.635 1.554-0.635s1.154 0.243 1.555 0.636l-0-0c0.858 0.849 0.858 2.225 0 3.072l-12.049 11.913 12.052 11.909c0.856 0.849 0.856 2.225 0 3.074-0.4 0.393-0.949 0.635-1.554 0.635s-1.154-0.243-1.555-0.636l0 0z"></path>
</symbol>
<symbol id="icon-tmdb_logo" viewBox="0 0 442 32">
<path d="M265.311 0h8.045l7.91 20.972h0.090l8.045-20.972h7.548l-13.198 32h-5.65zM307.435 0h7.051v32h-7.051zM327.503 0h21.74v6.508h-14.689v5.966h13.876v6.508h-13.876v6.508h15.503v6.508h-22.554zM377.22 0h10.576c2.593 0.005 5.106 0.334 7.505 0.95l-0.21-0.046c2.3 0.533 4.323 1.472 6.088 2.746l-0.049-0.034c1.726 1.313 3.109 2.988 4.050 4.918l0.036 0.081c0.99 2.072 1.569 4.504 1.569 7.072 0 0.142-0.002 0.284-0.005 0.425l0-0.021c0.002 0.089 0.003 0.193 0.003 0.298 0 2.382-0.545 4.636-1.516 6.645l0.040-0.091c-0.978 1.972-2.309 3.629-3.924 4.951l-0.026 0.021c-1.628 1.307-3.538 2.347-5.615 3.012l-0.125 0.035c-2.009 0.66-4.32 1.040-6.721 1.040-0.068 0-0.137-0-0.205-0.001l0.010 0h-11.489zM384.28 25.492h3.616c0.042 0 0.092 0.001 0.142 0.001 1.552 0 3.062-0.181 4.51-0.524l-0.132 0.026c1.38-0.323 2.591-0.896 3.642-1.673l-0.027 0.019c1.033-0.787 1.853-1.801 2.393-2.971l0.020-0.049c0.573-1.274 0.907-2.762 0.907-4.328 0-0.093-0.001-0.186-0.004-0.278l0 0.014c0.001-0.050 0.002-0.11 0.002-0.169 0-1.426-0.334-2.773-0.929-3.968l0.023 0.052c-0.576-1.152-1.376-2.114-2.349-2.86l-0.019-0.014c-0.998-0.745-2.168-1.328-3.433-1.682l-0.074-0.018c-1.249-0.356-2.683-0.561-4.165-0.561-0.020 0-0.039 0-0.059 0h-4.155zM416.94 0h11.932c1.478 0.002 2.93 0.107 4.35 0.308l-0.165-0.019c1.405 0.191 2.676 0.604 3.834 1.206l-0.065-0.031c1.118 0.587 2.033 1.424 2.695 2.44l0.017 0.027c0.659 1.097 1.049 2.421 1.049 3.835 0 0.129-0.003 0.258-0.010 0.386l0.001-0.018c0.004 0.082 0.006 0.177 0.006 0.274 0 1.617-0.572 3.1-1.524 4.258l0.009-0.012c-1.042 1.19-2.401 2.078-3.945 2.534l-0.059 0.015v0.090c1.072 0.151 2.041 0.469 2.925 0.928l-0.050-0.024c0.862 0.435 1.595 0.996 2.209 1.667l0.005 0.006c0.605 0.664 1.087 1.452 1.404 2.319l0.016 0.049c0.315 0.841 0.497 1.812 0.497 2.827 0 0.023-0 0.046-0 0.069l0-0.004c0.003 0.084 0.005 0.182 0.005 0.281 0 1.458-0.405 2.822-1.109 3.984l0.019-0.034c-0.722 1.113-1.661 2.023-2.764 2.691l-0.038 0.021c-1.11 0.678-2.403 1.195-3.782 1.478l-0.078 0.013c-1.284 0.284-2.76 0.448-4.273 0.452h-13.11zM423.955 12.791h5.107c0.571-0.001 1.126-0.067 1.659-0.191l-0.050 0.010c0.538-0.119 1.012-0.322 1.436-0.598l-0.017 0.010c0.426-0.274 0.771-0.639 1.014-1.070l0.008-0.015c0.24-0.445 0.381-0.973 0.381-1.535 0-0.033-0-0.065-0.001-0.097l0 0.005c0.002-0.038 0.003-0.082 0.003-0.127 0-0.562-0.159-1.086-0.435-1.531l0.007 0.012c-0.281-0.429-0.655-0.775-1.096-1.014l-0.016-0.008c-0.444-0.239-0.96-0.422-1.505-0.52l-0.032-0.005c-0.501-0.095-1.079-0.15-1.669-0.154h-4.794zM423.955 26.034h6.328c0.588-0.003 1.158-0.069 1.708-0.191l-0.054 0.010c0.572-0.122 1.078-0.342 1.525-0.643l-0.015 0.010c0.455-0.306 0.829-0.699 1.103-1.159l0.009-0.017c0.27-0.472 0.429-1.038 0.429-1.641 0-0.059-0.002-0.117-0.004-0.175l0 0.008c0.001-0.034 0.002-0.074 0.002-0.114 0-0.638-0.211-1.227-0.568-1.701l0.005 0.007c-0.378-0.452-0.858-0.806-1.404-1.031l-0.024-0.009c-0.525-0.229-1.134-0.403-1.771-0.493l-0.037-0.004c-0.554-0.083-1.196-0.132-1.849-0.136h-5.382zM184.407 31.937h60.565c8.817 0 15.964-7.147 15.964-15.964v0c0-8.818-7.146-15.968-15.963-15.973h-60.511c-8.818 0.005-15.964 7.154-15.964 15.973v0c0 8.817 7.147 15.964 15.964 15.964v0zM9.13 6.237h-9.13v-6.237h25.311v6.237h-9.13v25.763h-7.051zM35.254 0h7.051v11.932h13.65v-11.932h7.051v32h-7.051v-13.831h-13.695v13.831h-7.006zM72.497 0h21.695v6.508h-14.644v5.966h13.876v6.508h-13.876v6.508h15.503v6.508h-22.599zM122.215 0h10.667l7.367 20.881h0.090l7.412-20.881h10.621v32h-7.051v-24.542h-0.090l-8.407 24.542h-5.379l-8.136-24.542h-0.045v24.542h-7.051z"></path>
</symbol>
<symbol id="icon-star-empty" viewBox="0 0 32 32">
<path d="M32 12.408l-11.056-1.607-4.944-10.018-4.944 10.018-11.056 1.607 8 7.798-1.889 11.011 9.889-5.199 9.889 5.199-1.889-11.011 8-7.798zM16 23.547l-6.983 3.671 1.334-7.776-5.65-5.507 7.808-1.134 3.492-7.075 3.492 7.075 7.807 1.134-5.65 5.507 1.334 7.776-6.983-3.671z"></path>
</symbol>
<symbol id="icon-star-full" viewBox="0 0 32 32">
<path d="M32 12.408l-11.056-1.607-4.944-10.018-4.944 10.018-11.056 1.607 8 7.798-1.889 11.011 9.889-5.199 9.889 5.199-1.889-11.011 8-7.798z"></path>
</symbol>
</defs>
</svg>
