<svg version="1.1" id="Objects" xmlns="http://www.w3.org/2000/svg" x="0" y="0" viewBox="0 0 500 500" style="enable-background:new 0 0 500 500" xml:space="preserve"><style>.st0{opacity:.8}.st1{fill:#f0f}.st2{fill:#0ff}</style><g class="st0"><path class="st1" d="M113.9 326.1H128v-7.4h-22.3v11.1h8.2zM105.7 370.6H128v-7.4h-14.1v-6.5h-8.2zM113.9 348h11.2v-7.4h-11.2v-6.9h-8.2v19.1h8.2zM155.7 345.2c3.6-1.7 5.3-5.2 5.3-10.5v-1h-8.1v2.9c0 4.1-1.9 5.5-4.9 5.5h-3.2v-8.4h-8.1v19.1h8.1v-3.3h2.8c2.7 0 4.3.9 5 3.3h8.3c-.5-3.6-2-6.3-5.2-7.6zM144.8 326.1h3.9c2.4 0 3.7 1.1 4 3.6h8.2c-.3-7.4-3.9-11.1-12-11.1h-12.3v11.1h8.1v-3.6zM153 364.2c0 4.2.3 5 .7 6.4h8.3c-.8-1.9-.9-3.8-.9-6.3v-7.6H153v7.5zM136.7 356.7h8.1v13.9h-8.1zM178.3 326.1h3.9c2.4 0 3.7 1.1 4 3.6h8.2c-.3-7.4-3.9-11.1-12-11.1h-12.3v11.1h8.1v-3.6zM189.2 345.2c3.6-1.7 5.3-5.2 5.3-10.5v-1h-8.1v2.9c0 4.1-1.9 5.5-4.9 5.5h-3.2v-8.4h-8.1v19.1h8.1v-3.3h2.8c2.7 0 4.3.9 5 3.3h8.3c-.6-3.6-2.1-6.3-5.2-7.6zM186.5 364.2c0 4.2.3 5 .7 6.4h8.3c-.8-1.9-.9-3.8-.9-6.3v-7.6h-8.1v7.5zM170.2 356.7h8.1v13.9h-8.1zM219.6 333.7h8.1v19.1h-8.1zM219.6 358.6c0 3.7-1.6 5.1-4.2 5.1s-4.2-1.4-4.2-5.1v-2H203v1.4c0 8.3 4.4 13 12.4 13s12.4-4.7 12.4-13v-1.4h-8.1v2zM203 333.7h8.1v19.1H203zM215.3 325.5c2.4 0 3.9 1.2 4.2 4.2h8.2c-.5-7.4-4.8-11.6-12.3-11.6-7.5 0-11.9 4.2-12.3 11.6h8.2c.1-3 1.7-4.2 4-4.2zM255.7 345.2c3.6-1.7 5.3-5.2 5.3-10.5v-1h-8.1v2.9c0 4.1-1.9 5.5-4.9 5.5h-3.2v-8.4h-8.1v19.1h8.1v-3.3h2.8c2.7 0 4.3.9 5 3.3h8.3c-.6-3.6-2.1-6.3-5.2-7.6zM236.7 356.7h8.1v13.9h-8.1zM253 364.2c0 4.2.3 5 .7 6.4h8.3c-.8-1.9-.9-3.8-.9-6.3v-7.6H253v7.5zM244.8 326.1h3.9c2.4 0 3.7 1.1 4 3.6h8.2c-.3-7.4-3.9-11.1-12-11.1h-12.3v11.1h8.1v-3.6z"/><path class="st1" d="M106.6 352.8h8.1v3.9h-8.1zM105.1 329.8h8.1v3.9h-8.1zM137.6 352.8h8.1v3.9h-8.1zM136.1 329.8h8.1v3.9h-8.1zM152.3 331.5v2.2h8.1v-3.9h-8.2c.1.5.1 1 .1 1.7zM161.8 352.8h-8.3c.3.9.4 2 .4 3.3v.6h8.1v-.4c0-1.3-.1-2.4-.2-3.5zM171.1 352.8h8.1v3.9h-8.1zM195.3 352.8H187c.3.9.4 2 .4 3.3v.6h8.1v-.4c0-1.3-.1-2.4-.2-3.5zM169.6 329.8h8.1v3.9h-8.1zM185.8 331.5v2.2h8.1v-3.9h-8.2c0 .5.1 1 .1 1.7zM203.9 352.8h8.1v3.9h-8.1zM220.5 352.8h8.1v3.9h-8.1zM219 330.6v3h8.1v-3.9h-8.2c0 .3.1.6.1.9zM202.4 333.7h8.1v-3c0-.3 0-.6.1-.9h-8.2v3.9zM252.3 331.5v2.2h8.1v-3.9h-8.2c0 .5.1 1 .1 1.7zM236.1 329.8h8.1v3.9h-8.1zM237.6 352.8h8.1v3.9h-8.1zM261.8 352.8h-8.3c.3.9.4 2 .4 3.3v.6h8.1v-.4c0-1.3-.1-2.4-.2-3.5zM284.3 329.8h8.1v3.9h-8.1zM293.5 326.1h3.9c2.3 0 3.6.9 3.9 3.6h8.1c-.5-7.2-4.5-11.1-12.1-11.1h-12v11.1h8.1v-3.6zM297.3 351.1c8.1 0 12.1-4.5 12.1-12.8v-4.6h-8.1v5.1c0 3.7-1.4 4.9-4 4.9h-3.9v-10h-8.1v19.1h8.1v-1.7h3.9zM285.3 356.7h8.1v13.9h-8.1zM286.2 352.8h8.1v3.9h-8.1zM300.3 331v2.7h8.1v-2.1c0-.6 0-1.2-.1-1.8h-8.1c.1.3.1.8.1 1.2zM314.2 370.6h7.5l1.4-9.4h10l1.4 9.4h8.2l-2.2-13.9h-24.1zM326.2 333.7l.6-3.9h-7.1l-.6 3.9zM320.1 333.7l-3 19.1h7.2l2.9-19.1zM327.9 333.7h7.9l-.6-3.9h-7.9zM328.1 327.9l.2 1.9h7.9l-1.8-11.1h-11.9l-1.8 11.1h7.1zM332.6 352.8l.2 1.3H325l.2-1.3h-7.3l-.6 3.9h24l-.6-3.9zM328.9 333.7l2.9 19.1h8.1l-3.1-19.1zM349.5 333.7h8.1v19.1h-8.1zM348.5 333.7h8.1v-3c0-.3 0-.6.1-.9h-8.2v3.9zM366.1 358.6c0 3.7-1.6 5-4.2 5s-4.2-1.3-4.2-5v-2h-8.1v1.4c0 8.3 4.1 13 12.1 13s12.1-4.7 12.1-13v-1.4h-7.7v2z"/><path class="st1" d="M367 352.8h7.7v3.9H367zM366.1 333.7h7.7v2.5h-7.7zM350.4 352.8h8.1v3.9h-8.1zM365.1 330.6v3h7.7v-3.9h-7.7v.9zM362.4 341.7v7.4h3.7v3.7h7.7v-11.1zM361.9 325.5c2.4 0 3.9 1.2 4.2 4.2h7.7c-.4-7.4-4.6-11.6-12.1-11.6s-11.7 4.2-12.1 11.6h8.2c.2-3 1.7-4.2 4.1-4.2zM382.8 370.6H405v-7.4h-14.1v-6.5h-8.1zM381.8 329.8h8.1v3.9h-8.1z"/><path class="st1" d="M390.9 326.1H405v-7.4h-22.2v11.1h8.1zM382.8 352.8h8.1V348h11.2v-7.4h-11.2v-6.9h-8.1zM383.6 352.8h8.1v3.9h-8.1zM120.7 206.8H95.2l-2.4 5.5h25.6zM140.5 226.6h-28.1l4.1-9.9H90.9l-4.1 9.9v25.3h53.7v32.2h27.4v-32.2h13.2v-25.3h-13.2v-9.9h-27.4zM140.5 206.8h27.4v5.5h-27.4zM204.1 206.8H232v5.5h-27.9zM260.9 206.8h27.9v5.5h-27.9zM260.9 243.3c0 12.7-5.6 17.5-14.4 17.5-8.9 0-14.4-4.8-14.4-17.5v-26.6h-27.9v24.8c0 28.4 15 44.6 42.3 44.6 27.4 0 42.3-16.2 42.3-44.6v-24.8h-27.9v26.6zM366.6 206.8H394v5.5h-27.4z"/><path class="st1" d="M142.4 216.7h27.4v-4.4h-27.4v4.4zm63.6 0h27.9v-4.4H206v4.4zm-113.2 0h25.6l1.9-4.4H94.7l-1.9 4.4zm275.7-4.4v4.4h27.4v-4.4h-27.4zm-49.6 4.4h25.6l1.9-4.4h-25.6l-1.9 4.4zm-56.1 0h27.9v-4.4h-27.9v4.4zM366.6 226.6h-28.1l4.1-9.9H317l-4.1 9.9v25.3h53.7v32.2H394v-32.2h13.1v-25.3H394v-9.9h-27.4z"/><path class="st1" d="m321.2 206.8-2.3 5.5h25.6l2.3-5.5zM91.9 206.8h25.6l8.6-20.5h-25.6l-8.6 20.5zm45.3 0h27.4v-20.5h-27.4v20.5zm63.7 0h27.9v-20.5h-27.9v20.5zm162.4-20.5v20.5h27.4v-20.5h-27.4zM318 206.8h25.6l8.6-20.5h-25.6l-8.6 20.5zm-60.4 0h27.9v-20.5h-27.9v20.5z"/><g><path class="st1" d="M167.9 106.7h-30.4l-7.5 17.7h37.9z"/><path class="st1" d="m126.5 124.4-6 14.2h43.9v-14.2zM103.8 186.3h25.6l11.1-26.4v26.4h27.4v-47.7H124zM205.8 124.4c-2.1 4.1-3.6 8.9-4.4 14.2h28.4c2.1-6.1 6.8-8.6 13.1-8.6 6.4 0 11 2.5 13.1 8.6h28.4c-.8-5.3-2.3-10-4.4-14.2h-74.2zM204.1 149.3v37H232v-38.8c0-3.6.5-6.5 1.3-8.9h-28.4c-.5 3.3-.8 6.9-.8 10.7zM260.9 147.5v38.8h27.9v-37c0-3.8-.3-7.4-.8-10.7h-28.4c.8 2.4 1.3 5.3 1.3 8.9z"/><path class="st1" d="M246.4 104.7c-17.9 0-30.5 7-37.1 19.8h74.2c-6.5-12.9-19.1-19.8-37.1-19.8zM329.9 186.3h25.6l11.1-26.4v26.4H394v-47.7h-43.9zM352.5 124.4l-5.9 14.2h43.9v-14.2z"/><path class="st1" d="M394 106.7h-30.5l-7.4 17.7H394z"/></g></g><g class="st0"><path class="st2" d="M106.2 326.1h14.1v-7.4H98.1v11.1h8.1zM98.1 370.6h22.2v-7.4h-14.1v-6.5h-8.1zM106.2 348h11.2v-7.4h-11.2v-6.9h-8.1v19.1h8.1zM148.1 345.2c3.6-1.7 5.3-5.2 5.3-10.5v-1h-8.1v2.9c0 4.1-1.9 5.5-4.9 5.5h-3.2v-8.4H129v19.1h8.1v-3.3h2.8c2.7 0 4.3.9 5 3.3h8.3c-.5-3.6-2-6.3-5.1-7.6zM137.2 326.1h3.9c2.4 0 3.7 1.1 4 3.6h8.2c-.3-7.4-3.9-11.1-12-11.1H129v11.1h8.1v-3.6zM145.3 364.2c0 4.2.3 5 .7 6.4h8.3c-.8-1.9-.9-3.8-.9-6.3v-7.6h-8.1v7.5zM129 356.7h8.1v13.9H129zM170.7 326.1h3.9c2.4 0 3.7 1.1 4 3.6h8.2c-.3-7.4-3.9-11.1-12-11.1h-12.3v11.1h8.1v-3.6zM181.5 345.2c3.6-1.7 5.3-5.2 5.3-10.5v-1h-8.1v2.9c0 4.1-1.9 5.5-4.9 5.5h-3.2v-8.4h-8.1v19.1h8.1v-3.3h2.8c2.7 0 4.3.9 5 3.3h8.3c-.5-3.6-2-6.3-5.2-7.6zM178.8 364.2c0 4.2.3 5 .7 6.4h8.3c-.8-1.9-.9-3.8-.9-6.3v-7.6h-8.1v7.5zM162.5 356.7h8.1v13.9h-8.1zM211.9 333.7h8.1v19.1h-8.1zM211.9 358.6c0 3.7-1.6 5.1-4.2 5.1s-4.2-1.4-4.2-5.1v-2h-8.1v1.4c0 8.3 4.4 13 12.4 13s12.4-4.7 12.4-13v-1.4h-8.1v2zM195.3 333.7h8.1v19.1h-8.1zM207.7 325.5c2.4 0 3.9 1.2 4.2 4.2h8.2c-.5-7.4-4.8-11.6-12.3-11.6-7.5 0-11.9 4.2-12.3 11.6h8.2c.1-3 1.6-4.2 4-4.2zM248 345.2c3.6-1.7 5.3-5.2 5.3-10.5v-1h-8.1v2.9c0 4.1-1.9 5.5-4.9 5.5h-3.2v-8.4H229v19.1h8.1v-3.3h2.8c2.7 0 4.3.9 5 3.3h8.3c-.5-3.6-2-6.3-5.2-7.6zM229 356.7h8.1v13.9H229zM245.3 364.2c0 4.2.3 5 .7 6.4h8.3c-.8-1.9-.9-3.8-.9-6.3v-7.6h-8.1v7.5zM237.2 326.1h3.9c2.4 0 3.7 1.1 4 3.6h8.2c-.3-7.4-3.9-11.1-12-11.1H229v11.1h8.1v-3.6z"/><path class="st2" d="M99 352.8h8.1v3.9H99zM97.5 329.8h8.1v3.9h-8.1zM129.9 352.8h8.1v3.9h-8.1zM128.4 329.8h8.1v3.9h-8.1zM144.7 331.5v2.2h8.1v-3.9h-8.2c0 .5.1 1 .1 1.7zM154.1 352.8h-8.3c.3.9.4 2 .4 3.3v.6h8.1v-.4c.1-1.3 0-2.4-.2-3.5zM163.4 352.8h8.1v3.9h-8.1zM187.6 352.8h-8.3c.3.9.4 2 .4 3.3v.6h8.1v-.4c0-1.3 0-2.4-.2-3.5zM161.9 329.8h8.1v3.9h-8.1zM178.1 331.5v2.2h8.1v-3.9H178c.1.5.1 1 .1 1.7zM196.2 352.8h8.1v3.9h-8.1zM212.8 352.8h8.1v3.9h-8.1zM211.3 330.6v3h8.1v-3.9h-8.2c.1.3.1.6.1.9zM194.7 333.7h8.1v-3c0-.3 0-.6.1-.9h-8.2v3.9zM244.6 331.5v2.2h8.1v-3.9h-8.2c.1.5.1 1 .1 1.7zM228.4 329.8h8.1v3.9h-8.1zM229.9 352.8h8.1v3.9h-8.1zM254.1 352.8h-8.3c.3.9.4 2 .4 3.3v.6h8.1v-.4c0-1.3 0-2.4-.2-3.5zM276.7 329.8h8.1v3.9h-8.1zM285.8 326.1h3.9c2.3 0 3.6.9 3.9 3.6h8.1c-.5-7.2-4.5-11.1-12.1-11.1h-12v11.1h8.1v-3.6zM289.7 351.1c8.1 0 12.1-4.5 12.1-12.8v-4.6h-8.1v5.1c0 3.7-1.4 4.9-4 4.9h-3.9v-10h-8.1v19.1h8.1v-1.7h3.9zM277.7 356.7h8.1v13.9h-8.1zM278.5 352.8h8.1v3.9h-8.1zM292.7 331v2.7h8.1v-2.1c0-.6 0-1.2-.1-1.8h-8.1c0 .3.1.8.1 1.2zM306.6 370.6h7.4l1.4-9.4h10l1.4 9.4h8.3l-2.3-13.9h-24zM318.5 333.7l.6-3.9h-7l-.6 3.9zM312.5 333.7l-3.1 19.1h7.3l2.8-19.1zM320.3 333.7h7.9l-.7-3.9h-7.8zM320.4 327.9l.3 1.9h7.8l-1.7-11.1h-12l-1.7 11.1h7zM325 352.8l.2 1.3h-7.9l.2-1.3h-7.3l-.6 3.9h24.1l-.6-3.9zM321.3 333.7l2.8 19.1h8.1l-3-19.1zM341.9 333.7h8.1v19.1h-8.1zM340.9 333.7h8.1v-3c0-.3 0-.6.1-.9h-8.2v3.9zM358.5 358.6c0 3.7-1.6 5-4.2 5s-4.2-1.3-4.2-5v-2H342v1.4c0 8.3 4.1 13 12.1 13s12.1-4.7 12.1-13v-1.4h-7.7v2z"/><path class="st2" d="M359.3 352.8h7.7v3.9h-7.7zM358.5 333.7h7.7v2.5h-7.7zM342.7 352.8h8.1v3.9h-8.1zM357.5 330.6v3h7.7v-3.9h-7.7c-.1.3 0 .6 0 .9zM354.8 341.7v7.4h3.7v3.7h7.7v-11.1zM354.2 325.5c2.4 0 3.9 1.2 4.2 4.2h7.7c-.4-7.4-4.6-11.6-12.1-11.6s-11.7 4.2-12.1 11.6h8.2c.2-3 1.8-4.2 4.1-4.2zM375.1 370.6h22.3v-7.4h-14.1v-6.5h-8.2zM374.1 329.8h8.1v3.9h-8.1z"/><path class="st2" d="M383.3 326.1h14.1v-7.4h-22.3v11.1h8.2zM375.1 352.8h8.2V348h11.2v-7.4h-11.2v-6.9h-8.2zM376 352.8h8.1v3.9H376zM113.1 206.8H87.5l-2.3 5.5h25.5zM132.8 226.6h-28.1l4.2-9.9H83.3l-4.2 9.9v25.3h53.7v32.2h27.4v-32.2h13.2v-25.3h-13.2v-9.9h-27.4zM132.8 206.8h27.4v5.5h-27.4zM196.5 206.8h27.9v5.5h-27.9zM253.2 206.8h27.9v5.5h-27.9zM253.2 243.3c0 12.7-5.6 17.5-14.4 17.5-8.9 0-14.4-4.8-14.4-17.5v-26.6h-27.9v24.8c0 28.4 15 44.6 42.3 44.6 27.4 0 42.3-16.2 42.3-44.6v-24.8h-27.9v26.6zM358.9 206.8h27.4v5.5h-27.4z"/><path class="st2" d="M134.7 216.7h27.4v-4.4h-27.4v4.4zm63.7 0h27.9v-4.4h-27.9v4.4zm-113.2 0h25.6l1.9-4.4H87.1l-1.9 4.4zm275.6-4.4v4.4h27.4v-4.4h-27.4zm-49.5 4.4h25.6l1.9-4.4h-25.6l-1.9 4.4zm-56.2 0H283v-4.4h-27.9v4.4zM358.9 226.6h-28.1l4.2-9.9h-25.6l-4.2 9.9v25.3h53.7v32.2h27.4v-32.2h13.2v-25.3h-13.2v-9.9h-27.4z"/><path class="st2" d="m313.6 206.8-2.4 5.5h25.6l2.4-5.5zM84.2 206.8h25.6l8.6-20.5H92.9l-8.7 20.5zm45.4 0H157v-20.5h-27.4v20.5zm63.6 0h27.9v-20.5h-27.9v20.5zm162.5-20.5v20.5H383v-20.5h-27.3zm-45.4 20.5h25.6l8.6-20.5H319l-8.7 20.5zm-60.3 0h27.9v-20.5H250v20.5z"/><g><path class="st2" d="M160.2 106.7h-30.4l-7.5 17.7h37.9z"/><path class="st2" d="m118.8 124.4-6 14.2h43.9v-14.2zM96.2 186.3h25.5l11.1-26.4v26.4h27.4v-47.7h-43.9zM198.2 124.4c-2.1 4.1-3.6 8.9-4.4 14.2h28.4c2.1-6.1 6.8-8.6 13.1-8.6 6.4 0 11 2.5 13.1 8.6h28.4c-.8-5.3-2.3-10-4.4-14.2h-74.2zM196.5 149.3v37h27.9v-38.8c0-3.6.5-6.5 1.3-8.9h-28.4c-.6 3.3-.8 6.9-.8 10.7zM253.2 147.5v38.8h27.9v-37c0-3.8-.3-7.4-.8-10.7h-28.4c.9 2.4 1.3 5.3 1.3 8.9z"/><path class="st2" d="M238.8 104.7c-17.9 0-30.5 7-37.1 19.8h74.2c-6.6-12.9-19.2-19.8-37.1-19.8zM322.2 186.3h25.6l11.1-26.4v26.4h27.4v-47.7h-43.9zM344.9 124.4l-6 14.2h43.9v-14.2z"/><path class="st2" d="M386.3 106.7h-30.4l-7.5 17.7h37.9z"/></g></g><g class="st0"><path d="M111.7 326.1h14.1v-7.4h-22.3v11.1h8.2zM103.5 370.6h22.3v-7.4h-14.1v-6.5h-8.2zM111.2 348.7h11.2v-7.4h-11.2v-6.9h-8.1v19.1h8.1zM153.1 346c3.6-1.7 5.3-5.2 5.3-10.5v-1h-8.1v2.9c0 4.1-1.9 5.5-4.9 5.5h-3.2v-8.4H134v19.1h8.1v-3.3h2.8c2.7 0 4.3.9 5 3.3h8.3c-.5-3.7-2-6.3-5.1-7.6zM142.6 326.1h3.9c2.4 0 3.7 1.1 4 3.6h8.2c-.3-7.4-3.9-11.1-12-11.1h-12.3v11.1h8.1v-3.6zM150.8 364.2c0 4.2.3 5 .7 6.4h8.3c-.8-1.9-.9-3.8-.9-6.3v-7.6h-8.1v7.5zM134.5 356.7h8.1v13.9h-8.1zM176.1 326.1h3.9c2.4 0 3.7 1.1 4 3.6h8.2c-.3-7.4-3.9-11.1-12-11.1H168v11.1h8.1v-3.6zM186.5 346c3.6-1.7 5.3-5.2 5.3-10.5v-1h-8.1v2.9c0 4.1-1.9 5.5-4.9 5.5h-3.2v-8.4h-8.1v19.1h8.1v-3.3h2.8c2.7 0 4.3.9 5 3.3h8.3c-.5-3.7-2-6.3-5.2-7.6zM184.3 364.2c0 4.2.3 5 .7 6.4h8.3c-.8-1.9-.9-3.8-.9-6.3v-7.6h-8.1v7.5zM168 356.7h8.1v13.9H168zM216.9 334.4h8.1v19.1h-8.1zM217.4 358.6c0 3.7-1.6 5.1-4.2 5.1s-4.2-1.4-4.2-5.1v-2h-8.1v1.4c0 8.3 4.4 13 12.4 13s12.4-4.7 12.4-13v-1.4h-8.1v2zM200.3 334.4h8.1v19.1h-8.1zM213.2 325.5c2.4 0 3.9 1.2 4.2 4.2h8.2c-.5-7.4-4.8-11.6-12.3-11.6s-11.9 4.2-12.3 11.6h8.2c0-3 1.6-4.2 4-4.2zM253 346c3.6-1.7 5.3-5.2 5.3-10.5v-1h-8.1v2.9c0 4.1-1.9 5.5-4.9 5.5h-3.2v-8.4H234v19.1h8.1v-3.3h2.8c2.7 0 4.3.9 5 3.3h8.3c-.5-3.7-2-6.3-5.2-7.6zM234.5 356.7h8.1v13.9h-8.1zM250.8 364.2c0 4.2.3 5 .7 6.4h8.3c-.8-1.9-.9-3.8-.9-6.3v-7.6h-8.1v7.5zM242.6 326.1h3.9c2.4 0 3.7 1.1 4 3.6h8.2c-.3-7.4-3.9-11.1-12-11.1h-12.3v11.1h8.1v-3.6z"/><path d="M104.4 352.8h8.1v3.9h-8.1zM102.9 329.8h8.1v3.9h-8.1zM135.4 352.8h8.1v3.9h-8.1zM133.9 329.8h8.1v3.9h-8.1zM150.1 331.5v2.2h8.1v-3.9H150c.1.5.1 1 .1 1.7zM159.6 352.8h-8.3c.3.9.4 2 .4 3.3v.6h8.1v-.4c0-1.3 0-2.4-.2-3.5zM168.9 352.8h8.1v3.9h-8.1zM193.1 352.8h-8.3c.3.9.4 2 .4 3.3v.6h8.1v-.4c0-1.3-.1-2.4-.2-3.5zM167.4 329.8h8.1v3.9h-8.1zM183.6 331.5v2.2h8.1v-3.9h-8.2c0 .5.1 1 .1 1.7zM201.7 352.8h8.1v3.9h-8.1zM218.3 352.8h8.1v3.9h-8.1zM216.8 330.6v3h8.1v-3.9h-8.2c.1.3.1.6.1.9zM200.2 333.7h8.1v-3c0-.3 0-.6.1-.9h-8.2v3.9zM250.1 331.5v2.2h8.1v-3.9H250c.1.5.1 1 .1 1.7zM233.9 329.8h8.1v3.9h-8.1zM235.4 352.8h8.1v3.9h-8.1zM259.6 352.8h-8.3c.3.9.4 2 .4 3.3v.6h8.1v-.4c0-1.3-.1-2.4-.2-3.5zM282.1 329.8h8.1v3.9h-8.1zM291.3 326.1h3.9c2.3 0 3.6.9 3.9 3.6h8.1c-.5-7.2-4.5-11.1-12.1-11.1h-12v11.1h8.1v-3.6zM294.7 351.8c8.1 0 12.1-4.5 12.1-12.8v-4.6h-8.1v5.1c0 3.7-1.4 4.9-4 4.9h-3.9v-10h-8.1v19.1h8.1v-1.7h3.9zM283.1 356.7h8.1v13.9h-8.1z"/><path d="M284 352.8h8.1v3.9H284zM298.1 331v2.7h8.1v-2.1c0-.6 0-1.2-.1-1.8H298c.1.3.1.8.1 1.2zM312 370.6h7.5l1.4-9.4h10l1.4 9.4h8.2l-2.2-13.9h-24.1zM324 333.7l.6-3.9h-7.1l-.6 3.9zM317.4 334.4l-3 19.1h7.3l2.8-19.1zM325.7 333.7h7.9l-.6-3.9h-7.9zM325.9 327.9l.3 1.9h7.8l-1.8-11.1h-11.9l-1.7 11.1h7z"/><path d="m330.4 352.8.2 1.3h-7.8l.2-1.3h-7.3l-.6 3.9h24.1l-.7-3.9z"/><path d="m326.3 334.4 2.8 19.1h8.1l-3-19.1zM346.9 334.4h8.1v19.1h-8.1zM346.3 333.7h8.1v-3c0-.3 0-.6.1-.9h-8.2v3.9zM363.9 358.6c0 3.7-1.6 5-4.2 5s-4.2-1.3-4.2-5v-2h-8.1v1.4c0 8.3 4.1 13 12.1 13s12.1-4.7 12.1-13v-1.4h-7.7v2z"/><path d="M364.8 352.8h7.7v3.9h-7.7zM363.5 334.4h7.7v2.5h-7.7zM348.2 352.8h8.1v3.9h-8.1zM362.9 330.6v3h7.7v-3.9h-7.7v.9z"/><path d="M359.8 342.4v7.4h3.7v3.7h7.7v-11.1zM359.7 325.5c2.4 0 3.9 1.2 4.2 4.2h7.7c-.4-7.4-4.6-11.6-12.1-11.6s-11.7 4.2-12.1 11.6h8.2c.2-3 1.7-4.2 4.1-4.2zM380.6 370.6h22.2v-7.4h-14v-6.5h-8.2zM379.6 329.8h8.1v3.9h-8.1z"/><path d="M388.8 326.1h14v-7.4h-22.2v11.1h8.2zM380.1 353.5h8.2v-4.8h11.1v-7.4h-11.1v-6.9h-8.2z"/><path d="M381.4 352.8h8.1v3.9h-8.1zM118.6 206.8H93l-2.4 5.5h25.6zM138.3 226.6h-28.1l4.1-9.9H88.8l-4.2 9.9v25.3h53.7v32.2h27.4v-32.2h13.2v-25.3h-13.2v-9.9h-27.4zM138.3 206.8h27.4v5.5h-27.4zM201.9 206.8h27.9v5.5h-27.9zM258.7 206.8h27.9v5.5h-27.9zM258.7 243.3c0 12.7-5.6 17.5-14.4 17.5-8.9 0-14.4-4.8-14.4-17.5v-26.6H202v24.8c0 28.4 15 44.6 42.3 44.6s42.3-16.2 42.3-44.6v-24.8h-27.9v26.6zM364.4 206.8h27.4v5.5h-27.4z"/><path d="M140.2 216.7h27.4v-4.4h-27.4v4.4zm63.6 0h27.9v-4.4h-27.9v4.4zm-113.1 0h25.6l1.9-4.4H92.5l-1.8 4.4zm275.6-4.4v4.4h27.4v-4.4h-27.4zm-49.6 4.4h25.6l1.9-4.4h-25.6l-1.9 4.4zm-56.1 0h27.9v-4.4h-27.9v4.4zM364.4 226.6h-28.1l4.1-9.9h-25.6l-4.1 9.9v25.3h53.7v32.2h27.4v-32.2H405v-25.3h-13.2v-9.9h-27.4z"/><path d="m319.1 206.8-2.4 5.5h25.6l2.3-5.5z"/><path d="M89.4 207.9H115l8.6-20.5H98l-8.6 20.5zm45.3 0h27.4v-20.5h-27.4v20.5zm63.6 0h27.9v-20.5h-27.9v20.5zm162.5-20.4V208h27.4v-20.5h-27.4zm-45.3 20.4h25.6l8.6-20.5h-25.6l-8.6 20.5zm-60.4 0H283v-20.5h-27.9v20.5z"/><g><path d="M165.7 106.7h-30.4l-7.5 17.7h37.9z"/><path d="m124.3 124.4-6 14.2h43.9v-14.2zM101.6 186.3h25.6l11.1-26.4v26.4h27.4v-47.7h-43.9zM203.7 124.4c-2.1 4.1-3.6 8.9-4.4 14.2h28.4c2.1-6.1 6.8-8.6 13.1-8.6 6.4 0 11 2.5 13.1 8.6h28.4c-.8-5.3-2.3-10-4.4-14.2h-74.2zM201.9 149.3v37h27.9v-38.8c0-3.6.5-6.5 1.3-8.9h-28.4c-.5 3.3-.8 6.9-.8 10.7zM258.7 147.5v38.8h27.9v-37c0-3.8-.3-7.4-.8-10.7h-28.4c.8 2.4 1.3 5.3 1.3 8.9z"/><path d="M244.3 104.7c-17.9 0-30.5 7-37.1 19.8h74.2c-6.6-12.9-19.2-19.8-37.1-19.8zM327.7 186.3h25.6l11.1-26.4v26.4h27.4v-47.7h-43.9zM350.4 124.4l-6 14.2h43.9v-14.2z"/><path d="M391.8 106.7h-30.4l-7.5 17.7h37.9z"/></g></g><path class="st2" d="M306.8 262.6h72.8v5.8h-72.8z"/><path class="st1" d="M345.8 266.2h21v8.5h-21z"/><path class="st2" d="M143 191.3h72.8v5.8H143z"/><path class="st1" d="M182 194.8h21v8.5h-21z"/><path class="st2" d="M63.5 249.1h39.9v3.2H63.5z"/><path class="st1" d="M84.9 251h11.5v4.6H84.9zM263.1 340.2h56.6v4h-56.6z"/><path class="st2" d="M265.7 336.9h56.6v4h-56.6z"/><path class="st1" d="M82.8 361.4h56.6v4H82.8z"/><path class="st2" d="M85.5 358.2h56.6v4H85.5zM185.2 381.1h81.9v5.6h-81.9z"/><path class="st1" d="M203.2 383.5h81.9v5.6h-81.9z"/><path class="st2" d="M406.4 153h25.8v5.6h-25.8z"/><path class="st1" d="M421.5 155.6h25.8v5.6h-25.8z"/><g><path transform="rotate(-180 269 80.402)" class="st2" d="M202.1 78.6h133.8v3.6H202.1z"/><path transform="rotate(-180 200.15 82.979)" class="st1" d="M192.1 80.2h16v5.6h-16z"/></g><g><path transform="rotate(-180 117.701 161.173)" class="st1" d="M60.4 159.4H175v3.6H60.4z"/><path transform="rotate(-180 58.469 163.75)" class="st2" d="M50.4 161h16v5.6h-16z"/></g></svg>